<svg xmlns="http://www.w3.org/2000/svg" viewBox="0 0 800 140" width="800" height="140">
  <defs>
    <linearGradient id="bg2" x1="0%" y1="0%" x2="100%" y2="100%">
      <stop offset="0%" stop-color="#1e1f2e"/>
      <stop offset="100%" stop-color="#161722"/>
    </linearGradient>
  </defs>
  <rect width="800" height="140" rx="10" fill="url(#bg2)" stroke="#2a2b3d" stroke-width="1"/>
  <text x="40" y="82" font-family="'Segoe UI',Helvetica,Arial,sans-serif" font-size="52" font-weight="700" fill="#ffffff">02</text>
  <text x="100" y="58" font-family="'Segoe UI',Helvetica,Arial,sans-serif" font-size="11" font-weight="600" letter-spacing="2" fill="#6b6d80">MACHINE LEARNING / NLP</text>
  <text x="100" y="82" font-family="'Segoe UI',Helvetica,Arial,sans-serif" font-size="22" font-weight="700" fill="#ffffff">Speaker Role Classifier</text>
  <text x="100" y="104" font-family="'Segoe UI',Helvetica,Arial,sans-serif" font-size="12" fill="#8b8da0">Classifies meeting participants into functional roles using</text>
  <text x="100" y="120" font-family="'Segoe UI',Helvetica,Arial,sans-serif" font-size="12" fill="#8b8da0">hybrid linguistic heuristics and semantic embeddings.</text>
  <rect x="100" y="128" width="58" height="20" rx="10" fill="#252638" stroke="#3a3c52" stroke-width="0.5"/>
  <text x="129" y="142" font-family="'Segoe UI',Helvetica,Arial,sans-serif" font-size="10" fill="#a0a2b5">Python</text>
  <rect x="166" y="128" width="62" height="20" rx="10" fill="#252638" stroke="#3a3c52" stroke-width="0.5"/>
  <text x="197" y="142" font-family="'Segoe UI',Helvetica,Arial,sans-serif" font-size="10" fill="#a0a2b5">XGBoost</text>
  <rect x="236" y="128" width="60" height="20" rx="10" fill="#252638" stroke="#3a3c52" stroke-width="0.5"/>
  <text x="266" y="142" font-family="'Segoe UI',Helvetica,Arial,sans-serif" font-size="10" fill="#a0a2b5">MLflow</text>
  <rect x="304" y="128" width="68" height="20" rx="10" fill="#252638" stroke="#3a3c52" stroke-width="0.5"/>
  <text x="338" y="142" font-family="'Segoe UI',Helvetica,Arial,sans-serif" font-size="10" fill="#a0a2b5">Streamlit</text>
  <g transform="translate(720, 55)">
    <circle cx="16" cy="16" r="16" fill="#252638" stroke="#3a3c52" stroke-width="0.5"/>
    <path d="M16 4C9.37 4 4 9.37 4 16c0 5.3 3.44 9.8 8.2 11.38.6.11.82-.26.82-.58v-2.02c-3.34.73-4.04-1.61-4.04-1.61-.55-1.39-1.33-1.76-1.33-1.76-1.09-.74.08-.73.08-.73 1.2.08 1.84 1.24 1.84 1.24 1.07 1.83 2.8 1.3 3.49 1 .1-.78.42-1.3.76-1.6-2.67-.3-5.47-1.33-5.47-5.93 0-1.31.47-2.38 1.24-3.22-.13-.3-.54-1.52.12-3.17 0 0 1-.32 3.3 1.23a11.5 11.5 0 016 0c2.3-1.55 3.3-1.23 3.3-1.23.66 1.65.25 2.87.12 3.17.77.84 1.24 1.91 1.24 3.22 0 4.61-2.8 5.63-5.48 5.92.43.37.81 1.1.81 2.22v3.29c0 .32.22.7.82.58A12.01 12.01 0 0028 16c0-6.63-5.37-12-12-12z" fill="#8b8da0"/>
    <line x1="34" y1="10" x2="42" y2="2" stroke="#8b8da0" stroke-width="1.5" stroke-linecap="round"/>
    <polyline points="36,2 42,2 42,8" fill="none" stroke="#8b8da0" stroke-width="1.5" stroke-linecap="round" stroke-linejoin="round"/>
  </g>
</svg>
